<svg xmlns="http://www.w3.org/2000/svg" viewBox="0 0 64 64" width="64" height="64">
  <rect width="64" height="64" rx="14" fill="#2F5249" />
  <path
    d="M22 28c-3.2 0-5.5-2.8-5.5-6S18.5 16 21.5 16s5 2.8 5 6-1.3 6-4.5 6Zm20 0c-3.2 0-4.5-2.8-4.5-6s2-6 5-6 5.5 2.8 5.5 6-2.3 6-6 6ZM15 38c0-2.6 1.8-4 4-4s3.5 1.4 3.5 4-1.5 4.5-3.5 4.5S15 40.6 15 38Zm30 0c0-2.6 1.5-4 3.5-4s4 1.4 4 4-1.5 4.5-4 4.5S45 40.6 45 38Zm-13 3c5 0 9 3.2 9 7.8 0 2.7-1.9 4.2-4.4 4.2-2.1 0-3.1-.9-4.6-.9s-2.5.9-4.6.9c-2.5 0-4.4-1.5-4.4-4.2C23 44.2 27 41 32 41Z"
    fill="#F4A24C"
  />
</svg>
